<?xml version="1.0" standalone="no"?><!DOCTYPE svg PUBLIC "-//W3C//DTD SVG 1.1//EN" "http://www.w3.org/Graphics/SVG/1.1/DTD/svg11.dtd"><svg t="1616660749111" class="icon" viewBox="0 0 1024 1024" version="1.1" xmlns="http://www.w3.org/2000/svg" p-id="2042" xmlns:xlink="http://www.w3.org/1999/xlink" width="200" height="200"><defs><style type="text/css"></style></defs><path d="M832 800c0 20.704-10.048 38.976-25.376 50.688A63.456 63.456 0 0 1 768 864c-35.296 0-64-28.704-64-64 0-2.752 0.48-5.408 0.8-8.096A64.032 64.032 0 0 1 768 736c32.16 0 58.592 23.936 63.072 54.88 0.416 3.008 0.928 5.984 0.928 9.12M256 576c-35.296 0-64-28.704-64-64s28.704-64 64-64a63.616 63.616 0 0 1 61.152 46.176c1.664 5.696 2.848 11.584 2.848 17.824s-1.184 12.128-2.848 17.824A63.648 63.648 0 0 1 256 576M704 224c0-35.296 28.704-64 64-64 14.56 0 27.84 5.088 38.624 13.312 15.328 11.712 25.376 29.984 25.376 50.688 0 3.136-0.512 6.112-0.928 9.12A63.904 63.904 0 0 1 768 288a64.032 64.032 0 0 1-63.2-55.904C704.48 229.408 704 226.752 704 224m64 448a126.944 126.944 0 0 0-85.312 33.216l-300.672-173.6c1.024-6.432 1.984-12.896 1.984-19.616s-0.96-13.184-1.984-19.616l300.672-173.6A126.944 126.944 0 0 0 768 352a128 128 0 0 0 125.12-154.688 127.2 127.2 0 0 0-29.088-57.152A127.168 127.168 0 0 0 768 96a128 128 0 0 0-128 128c0 14.528 2.944 28.224 7.392 41.248l-291.104 168.096C332.832 403.52 296.864 384 256 384a128 128 0 0 0 0 256c40.864 0 76.832-19.52 100.288-49.344l291.104 168.096A126.912 126.912 0 0 0 640 800a128 128 0 0 0 128 128 127.168 127.168 0 0 0 96.032-44.16A127.2 127.2 0 0 0 896 800a128 128 0 0 0-128-128" fill="#181818" p-id="2043"></path></svg>